<svg xmlns="http://www.w3.org/2000/svg" viewBox="0 0 64 64" fill="none">
  <defs>
    <linearGradient id="g" x1="8" y1="8" x2="56" y2="56" gradientUnits="userSpaceOnUse">
      <stop stop-color="#38bdf8"/>
      <stop offset="1" stop-color="#6366f1"/>
    </linearGradient>
  </defs>
  <circle cx="32" cy="32" r="30" fill="url(#g)" opacity="0.15"/>
  <path d="M18 38c0-5.523 4.477-10 10-10 .86 0 1.69.11 2.48.31C32.4 24.16 35.5 22 39 22c4.97 0 9 4.03 9 9 0 .34-.02.67-.06 1C52.3 33.37 56 37.46 56 42.5 56 48.3 51.3 53 45.5 53H22.5C16.15 53 11 47.85 11 41.5c0-5.2 3.7-9.52 8.6-10.47" stroke="url(#g)" stroke-width="2.5" stroke-linecap="round" stroke-linejoin="round"/>
  <path d="M44 18l4-6M48 22l6-2M40 14l2-6" stroke="#38bdf8" stroke-width="2" stroke-linecap="round" opacity="0.8"/>
</svg>
